<svg id="Layer_1" enable-background="new 0 0 512 512" height="512" viewBox="0 0 512 512" width="512" xmlns="http://www.w3.org/2000/svg"><path d="m497.16 316.97c-.02-.03-.05-.06-.07-.1-10.8-14.38-31.18-17.42-45.68-6.91-.94-2.04-2.08-4-3.46-5.84-.01-.01-.02-.02-.03-.04l-.67-.89c-5.26-7.03-12.97-11.59-21.7-12.84-8.74-1.25-17.42.97-24.44 6.24l-46.8 35.06c-2.24-.48-4.57-.75-6.96-.75h-132.87c-12.14 0-22.88 1.41-34.82 4.57l-60.93 16.07-.27-23.45c-.05-4.38-3.62-7.91-8-7.91h-102.77c-2.14 0-4.19.86-5.69 2.38s-2.33 3.58-2.31 5.72l2.04 175.8c.05 4.38 3.62 7.91 8 7.91h102.77c2.14 0 4.19-.86 5.69-2.38s2.33-3.58 2.31-5.72l-.12-10.45h165.82c27.63 0 56.94-3.2 84.1-26.41l121.27-103.49c14.08-12 16.76-31.64 6.24-45.71zm-479.52 179.03-1.86-159.8h86.77l1.86 159.8zm393.08-186.61c3.6-2.71 8.07-3.84 12.57-3.2s8.46 2.98 11.17 6.6l.67.9c1.43 1.91 2.39 4.04 2.87 6.3l-57.7 43.22c-.17-9.16-4.11-17.42-10.33-23.29zm70.46 42-121.28 103.5c-21.92 18.73-45.32 22.57-73.71 22.57h-166l-1.28-109.72c.71.01 1.43-.07 2.15-.26l62.67-16.53c10.7-2.83 19.89-4.04 30.73-4.04h132.88c9.35 0 16.95 7.59 16.95 16.92v3.09c0 4.78-1.99 9.1-5.19 12.17-.2.17-.39.34-.57.52-2.99 2.62-6.9 4.22-11.19 4.22h-114.61c-4.42 0-8 3.58-8 8s3.58 8 8 8h114.63c8.46 0 16.2-3.21 22.04-8.47l91.16-68.28c7.46-5.6 18.08-4.09 23.71 3.35l.64.88c.02.03.05.06.07.09 5.41 7.23 3.78 17.54-3.8 23.99zm-421.07 93.9c-10.94 0-19.83 8.89-19.83 19.82 0 10.94 8.9 19.85 19.83 19.85s19.84-8.9 19.84-19.85c-.01-10.93-8.91-19.82-19.84-19.82zm0 23.67c-2.11 0-3.83-1.73-3.83-3.85 0-2.11 1.72-3.82 3.83-3.82 2.12 0 3.84 1.71 3.84 3.82-.01 2.12-1.73 3.85-3.84 3.85zm390.75-302.38c9.19-10.39 14.79-24.08 14.79-39.07 0-32.4-26.11-58.77-58.21-58.77s-58.21 26.36-58.21 58.77c0 14.98 5.59 28.66 14.77 39.05-7.11 1.02-13.98 3.13-20.55 6.3-4.63-1.06-9.45-1.64-14.4-1.64-12.08 0-27.59-2.15-34.74-12.08v-5.09c10.23-8.62 17.5-20.61 20.11-34.24h2.4c9.18 0 16.66-7.47 16.66-16.65v-17.15c0-7.09-4.47-13.14-10.73-15.54v-17.09c0-29.43-23.97-53.38-53.44-53.38h-26.59c-20.91 0-29.55 10.53-33.06 20.41-12.81 10.12-20.38 25.58-20.38 41.9v8.12c-6.32 2.36-10.84 8.45-10.84 15.58v17.15c0 9.18 7.47 16.65 16.66 16.65h2.52c2.6 13.62 9.87 25.6 20.08 34.22v5.11c-7.15 9.92-22.67 12.08-34.74 12.08-4.95 0-9.77.58-14.4 1.65-6.49-3.12-13.44-5.24-20.57-6.28 9.19-10.39 14.79-24.08 14.79-39.07 0-32.4-26.11-58.77-58.21-58.77-32.08 0-58.18 26.36-58.18 58.77 0 14.99 5.6 28.68 14.78 39.07-34.67 5.01-61.48 35.26-61.48 71.52v39.97c0 4.42 3.58 8 8 8h496.63c4.42 0 8-3.58 8-8v-39.97c-.01-36.24-26.78-66.49-61.46-71.53zm-43.41-81.84c23.27 0 42.21 19.19 42.21 42.77 0 23.57-18.93 42.74-42.21 42.74s-42.21-19.17-42.21-42.74c0-23.59 18.93-42.77 42.21-42.77zm-151.45 91.43-11.1-9.18c3.6.68 7.31 1.05 11.1 1.05s7.5-.37 11.1-1.05zm-29.08-3.27 16.19 13.38-10.71 8.11-9.01-18.37c1.3-1.02 2.47-2.06 3.53-3.12zm29.08 29.26c-1.84 0-3.52-.77-4.69-2.02l4.69-3.55 4.7 3.55c-1.19 1.25-2.86 2.02-4.7 2.02zm12.89-15.88 16.19-13.38c1.06 1.06 2.24 2.11 3.53 3.12l-9.01 18.37zm48.59-83.12c0 .34-.31.65-.66.65h-1.34v-18.45h1.34c.35 0 .66.3.66.65zm-96.33-71.37c1.52-1.08 2.62-2.65 3.1-4.45 1.58-5.89 4.92-11.34 18.47-11.34h26.59c20.64 0 37.44 16.77 37.44 37.38v7.18c-23.86-.16-41.64-7.95-60.92-19.61-1.84-1.11-4.05-1.44-6.13-.9s-3.86 1.89-4.94 3.75c-6.75 11.69-15.32 16.58-29.43 16.76.55-11.41 6.36-22.07 15.82-28.77zm-26.71 71.37v-17.15c0-.34.31-.65.66-.65h1.45v18.44h-1.45c-.36 0-.66-.3-.66-.64zm18.1 5.5v-32.55c13.41-1.57 23.7-7.28 31.62-17.6 19.89 11.19 36.77 16.64 55.32 17.82v32.33c0 23.93-19.51 43.39-43.48 43.39-23.96 0-43.46-19.47-43.46-43.39zm-107.99-23.92c23.27 0 42.21 19.19 42.21 42.77 0 23.57-18.93 42.74-42.21 42.74-23.26 0-42.18-19.17-42.18-42.74 0-23.59 18.93-42.77 42.18-42.77zm-88.86 153.37c0-30.79 24.76-56.04 55.12-56.29h11.63c6.82 2.84 14.29 4.42 22.12 4.42s15.3-1.58 22.13-4.42h11.58c2.77.02 5.53.28 8.26.73-16.83 11.6-27.89 30.99-27.89 52.93v34.6h-64.75v-14.88c0-4.42-3.58-8-8-8s-8 3.58-8 8v14.88h-22.2zm118.94-2.63c0-26.61 21.67-48.27 48.31-48.27 10.76 0 19.37-1.45 26.27-3.77l13.1 26.7c1.05 2.14 3.01 3.71 5.33 4.26.61.15 1.23.22 1.85.22 1.73 0 3.43-.56 4.83-1.62l4.22-3.19c1.21 1.5 2.6 2.84 4.16 3.99l-11.32 56.29h-49.34v-14.88c0-4.42-3.58-8-8-8s-8 3.58-8 8v14.88h-31.4v-34.61zm121.37-6.71 8.31 41.31h-16.62zm89.97 41.31v-14.88c0-4.42-3.58-8-8-8s-8 3.58-8 8v14.88h-49.34l-11.32-56.29c1.55-1.14 2.95-2.48 4.16-3.98l4.21 3.19c1.4 1.06 3.1 1.62 4.83 1.62.62 0 1.24-.07 1.85-.22 2.32-.55 4.28-2.12 5.33-4.26l13.09-26.7c6.9 2.31 15.51 3.77 26.27 3.77 26.65 0 48.34 21.65 48.34 48.27v34.6zm150.34 0h-22.17v-14.88c0-4.42-3.58-8-8-8s-8 3.58-8 8v14.88h-64.75v-34.6c0-21.94-11.07-41.34-27.92-52.94 2.7-.43 5.43-.69 8.2-.71h11.65c6.83 2.84 14.3 4.42 22.13 4.42s15.3-1.58 22.13-4.42h11.58c30.42.25 55.16 25.5 55.16 56.29v31.96z"/><path d="m234.77 43.8c1.07-1.86 2.85-3.21 4.94-3.75 2.08-.54 4.29-.21 6.13.9 19.28 11.66 37.06 19.45 60.92 19.61v-7.18c0-20.61-16.79-37.38-37.44-37.38h-26.59c-13.55 0-16.89 5.45-18.47 11.34-.48 1.8-1.58 3.37-3.1 4.45-9.45 6.7-15.27 17.36-15.82 28.77 14.11-.18 22.68-5.06 29.43-16.76z" fill="#87523e"/><path d="m288.61 176.02c-1.3-1.01-2.47-2.06-3.53-3.12l-16.19 13.38 10.71 8.11z" fill="#ebeced"/><path d="m441.16 181.83h-11.58c-6.83 2.84-14.3 4.42-22.13 4.42s-15.3-1.58-22.13-4.42h-11.65c-2.77.02-5.5.28-8.2.71 16.85 11.6 27.92 31 27.92 52.94v34.6h64.75v-14.88c0-4.42 3.58-8 8-8s8 3.58 8 8v14.88h22.17v-31.97c0-30.79-24.74-56.04-55.15-56.28z" fill="#82aee3"/><path d="m238.54 209.81-4.22 3.19c-1.4 1.06-3.1 1.62-4.83 1.62-.62 0-1.24-.07-1.85-.22-2.32-.55-4.28-2.12-5.33-4.26l-13.1-26.7c-6.9 2.31-15.51 3.77-26.27 3.77-26.64 0-48.31 21.65-48.31 48.27v34.6h31.4v-14.88c0-4.42 3.58-8 8-8s8 3.58 8 8v14.88h49.34l11.32-56.29c-1.55-1.14-2.94-2.48-4.15-3.98z" fill="#ebeced"/><path d="m223.39 176.02 9.01 18.37 10.71-8.11-16.19-13.38c-1.06 1.06-2.23 2.1-3.53 3.12z" fill="#ebeced"/><path d="m104.55 170.25c23.27 0 42.21-19.17 42.21-42.74 0-23.58-18.93-42.77-42.21-42.77-23.26 0-42.18 19.19-42.18 42.77 0 23.56 18.93 42.74 42.18 42.74z" fill="#ffcebf"/><path d="m256 152.05c23.98 0 43.48-19.47 43.48-43.39v-32.33c-18.55-1.18-35.43-6.63-55.32-17.82-7.92 10.32-18.22 16.03-31.62 17.6v32.55c0 23.92 19.5 43.39 43.46 43.39z" fill="#ffcebf"/><path d="m146.52 182.55c-2.73-.44-5.49-.7-8.26-.73h-11.58c-6.83 2.84-14.3 4.42-22.13 4.42s-15.29-1.58-22.12-4.42h-11.62c-30.36.25-55.12 25.5-55.12 56.29v31.97h22.2v-14.88c0-4.42 3.58-8 8-8s8 3.58 8 8v14.88h64.75v-34.6c-.01-21.94 11.05-41.33 27.88-52.93z" fill="#82aee3"/><path d="m329.05 187.21c-10.76 0-19.37-1.45-26.27-3.77l-13.09 26.7c-1.05 2.15-3.01 3.71-5.33 4.26-.61.15-1.23.22-1.85.22-1.73 0-3.43-.56-4.83-1.62l-4.21-3.19c-1.21 1.5-2.61 2.84-4.16 3.98l11.32 56.29h49.34v-14.88c0-4.42 3.58-8 8-8s8 3.58 8 8v14.88h31.43v-34.6c-.01-26.62-21.69-48.27-48.35-48.27z" fill="#ebeced"/><path d="m247.69 270.08h16.62l-8.31-41.31z" fill="#fe646f"/><path d="m244.9 166.99 11.1 9.18 11.1-9.18c-3.6.68-7.31 1.05-11.1 1.05-3.79.01-7.5-.36-11.1-1.05z" fill="#ffcebf"/><path d="m260.7 200.14-4.7-3.55-4.69 3.55c1.18 1.25 2.85 2.02 4.69 2.02s3.51-.77 4.7-2.02z" fill="#fe646f"/><path d="m380.3 363.21 57.7-43.22c-.48-2.26-1.44-4.39-2.87-6.3l-.67-.9c-2.71-3.62-6.67-5.96-11.17-6.6-4.51-.64-8.97.49-12.57 3.2l-40.75 30.53c6.22 5.87 10.16 14.13 10.33 23.29z" fill="#ffcebf"/><path d="m484.9 327.32-.64-.88c-5.63-7.44-16.25-8.95-23.71-3.35l-91.16 68.28c-5.84 5.26-13.57 8.47-22.04 8.47h-114.62c-4.42 0-8-3.58-8-8s3.58-8 8-8h114.63c4.28 0 8.2-1.59 11.19-4.22.18-.18.37-.36.57-.52 3.2-3.08 5.19-7.4 5.19-12.17v-3.09c0-9.33-7.6-16.92-16.95-16.92h-132.88c-10.84 0-20.03 1.21-30.73 4.04l-62.67 16.53c-.72.19-1.44.27-2.15.26l1.28 109.72h165.99c28.39 0 51.78-3.84 73.71-22.57l121.28-103.5c7.58-6.46 9.2-16.76 3.79-23.98-.03-.04-.05-.07-.08-.1z" fill="#ffcebf"/><path d="m15.78 336.2 1.86 159.8h86.77l-1.86-159.8zm44.33 148.76c-10.94 0-19.83-8.9-19.83-19.85 0-10.93 8.9-19.82 19.83-19.82s19.84 8.89 19.84 19.82c-.01 10.94-8.91 19.85-19.84 19.85z" fill="#425f77"/><path d="m60.11 461.29c-2.11 0-3.83 1.71-3.83 3.82 0 2.12 1.72 3.85 3.83 3.85 2.12 0 3.84-1.73 3.84-3.85-.01-2.11-1.73-3.82-3.84-3.82z" fill="#3c586b"/><g fill="#ffcebf"><path d="m194.44 86.01v17.15c0 .34.31.65.66.65h1.45v-18.45h-1.45c-.36 0-.66.3-.66.65z"/><path d="m317.48 103.16v-17.15c0-.34-.31-.65-.66-.65h-1.34v18.44h1.34c.35 0 .66-.3.66-.64z"/><path d="m407.45 170.25c23.27 0 42.21-19.17 42.21-42.74 0-23.58-18.93-42.77-42.21-42.77s-42.21 19.19-42.21 42.77c0 23.56 18.93 42.74 42.21 42.74z"/></g></svg>